<svg xmlns="http://www.w3.org/2000/svg" viewBox="0 0 1000 268" width="1000" height="268" role="img" aria-label="Public code: language distribution and activity for Asmodeus14">
  <title>Public code — language distribution and activity</title>
  <defs>
    <style>
      .mono { font-family: "DejaVu Sans Mono","Liberation Mono",Consolas,Menlo,monospace; }
    </style>
    <clipPath id="bar"><rect x="40" y="96" width="620" height="14" rx="7"/></clipPath>
  </defs>

  <rect x="0" y="0" width="1000" height="268" rx="14" fill="#0d1117"/>

  <text class="mono" x="40" y="46" font-size="15" font-weight="700" letter-spacing="2" fill="#e6edf3">PUBLIC CODE</text>
  <line x1="40" y1="62" x2="960" y2="62" stroke="#30363d"/>

  <text class="mono" x="40" y="84" font-size="11" letter-spacing="1.2" fill="#6e7681">LANGUAGE DISTRIBUTION</text>

  <rect x="40" y="96" width="620" height="14" rx="7" fill="#21262d"/>
  <g clip-path="url(#bar)">
      <rect x="40.0" y="96" width="283.1" height="14" fill="#dea584"/>
      <rect x="323.1" y="96" width="173.0" height="14" fill="#3178c6"/>
      <rect x="496.1" y="96" width="128.3" height="14" fill="#3572A5"/>
      <rect x="624.4" y="96" width="21.2" height="14" fill="#AA6746"/>
      <rect x="645.6" y="96" width="14.4" height="14" fill="#f1e05a"/>
  </g>

      <g transform="translate(40 144)">
        <circle cx="5" cy="-4" r="5" fill="#dea584"/>
        <text class="mono" x="18" y="0" font-size="13" fill="#e6edf3">Rust</text>
        <text class="mono" x="18" y="0" font-size="13" fill="#8b949e" dx="39.6">45.7%</text>
      </g>
      <g transform="translate(250 144)">
        <circle cx="5" cy="-4" r="5" fill="#3178c6"/>
        <text class="mono" x="18" y="0" font-size="13" fill="#e6edf3">TypeScript</text>
        <text class="mono" x="18" y="0" font-size="13" fill="#8b949e" dx="87">27.9%</text>
      </g>
      <g transform="translate(460 144)">
        <circle cx="5" cy="-4" r="5" fill="#3572A5"/>
        <text class="mono" x="18" y="0" font-size="13" fill="#e6edf3">Python</text>
        <text class="mono" x="18" y="0" font-size="13" fill="#8b949e" dx="55.400000000000006">20.7%</text>
      </g>
      <g transform="translate(40 174)">
        <circle cx="5" cy="-4" r="5" fill="#AA6746"/>
        <text class="mono" x="18" y="0" font-size="13" fill="#e6edf3">Solidity</text>
        <text class="mono" x="18" y="0" font-size="13" fill="#8b949e" dx="71.2">3.4%</text>
      </g>
      <g transform="translate(250 174)">
        <circle cx="5" cy="-4" r="5" fill="#f1e05a"/>
        <text class="mono" x="18" y="0" font-size="13" fill="#e6edf3">JavaScript</text>
        <text class="mono" x="18" y="0" font-size="13" fill="#8b949e" dx="87">2.3%</text>
      </g>

      <g transform="translate(720 104)">
        <text class="mono" x="0" y="0" font-size="10" letter-spacing="1.4" fill="#6e7681">PUBLIC REPOS</text>
        <text class="mono" x="0" y="26" font-size="26" font-weight="700" fill="#e6edf3">24</text>
      </g>
      <g transform="translate(720 156)">
        <text class="mono" x="0" y="0" font-size="10" letter-spacing="1.4" fill="#6e7681">COMMITS · 12 MO</text>
        <text class="mono" x="0" y="26" font-size="26" font-weight="700" fill="#e6edf3">302</text>
      </g>
      <g transform="translate(720 208)">
        <text class="mono" x="0" y="0" font-size="10" letter-spacing="1.4" fill="#6e7681">CONTRIBUTIONS · 12 MO</text>
        <text class="mono" x="0" y="26" font-size="26" font-weight="700" fill="#e6edf3">316</text>
      </g>

  <text class="mono" x="40" y="246" font-size="10.5" fill="#6e7681">Excludes 8,695 KB of vendored third-party C and ASL (ACPICA, lwext4) embedded in Nyx.</text>

  <rect x="0.5" y="0.5" width="999" height="267" rx="14" fill="none" stroke="#30363d"/>
</svg>
