<svg xmlns="http://www.w3.org/2000/svg" viewBox="0 0 880 210" width="880" height="210" role="img" aria-label="GitHub statistics for Asmodeus14">
  <title>Asmodeus14 — 34 repositories, 10 stars earned, 238 contributions / yr, 10 followers</title>
  <defs>
    <linearGradient id="num" gradientUnits="userSpaceOnUse" x1="44" y1="0" x2="340" y2="0">
      <stop offset="0%" stop-color="#22d3ee"/>
      <stop offset="100%" stop-color="#8b5cf6"/>
    </linearGradient>
    <style>
      .mono { font-family: "DejaVu Sans Mono","Liberation Mono",Consolas,Menlo,monospace; }
      .num { font-size: 34px; font-weight: 700; fill: url(#num); }
      .lab { font-size: 10.5px; letter-spacing: 1.6px; fill: #8b949e; }
      .hd  { font-size: 10.5px; letter-spacing: 1.6px; fill: #8b949e; }
      .lg  { font-size: 12.5px; fill: #8b949e; }
      .pct { font-size: 12.5px; fill: #8b949e; opacity: .75; }
    </style>
  </defs>

  <rect x="0.5" y="0.5" width="879" height="209" rx="14" fill="#0d1117" stroke="#30363d"/>

  <g class="mono">
      <g>
        <text class="num" x="44" y="86">34</text>
        <text class="lab" x="44" y="104">REPOSITORIES</text>
      </g>
      <g>
        <text class="num" x="210" y="86">10</text>
        <text class="lab" x="210" y="104">STARS EARNED</text>
      </g>
      <g>
        <text class="num" x="44" y="152">238</text>
        <text class="lab" x="44" y="170">CONTRIBUTIONS / YR</text>
      </g>
      <g>
        <text class="num" x="210" y="152">10</text>
        <text class="lab" x="210" y="170">FOLLOWERS</text>
      </g>

      <line x1="372" y1="38" x2="372" y2="172" stroke="#30363d"/>

      <text class="hd" x="410" y="58">TOP LANGUAGES</text>
      <rect x="410" y="74" width="430" height="10" rx="5" fill="#21262d"/>
      <rect x="410.0" y="74" width="273.8" height="10" rx="5" fill="#4d83b0"/>
      <rect x="683.8" y="74" width="79.9" height="10" rx="0" fill="#7b7b7b"/>
      <rect x="763.7" y="74" width="25.8" height="10" rx="0" fill="#8b949e"/>
      <rect x="789.5" y="74" width="24.0" height="10" rx="0" fill="#dea584"/>
      <rect x="813.4" y="74" width="17.5" height="10" rx="0" fill="#3178c6"/>
      <rect x="830.9" y="74" width="2.6" height="10" rx="0" fill="#f1e05a"/>
      <rect x="833.5" y="74" width="6.5" height="10" rx="5" fill="#7f8690"/>
      <g transform="translate(410 112)">
        <circle cx="5" cy="-4" r="5" fill="#4d83b0"/>
        <text class="lg" x="18" y="0">Python</text>
        <text class="pct" x="205" y="0" text-anchor="end">63.7%</text>
      </g>
      <g transform="translate(630 112)">
        <circle cx="5" cy="-4" r="5" fill="#7b7b7b"/>
        <text class="lg" x="18" y="0">C</text>
        <text class="pct" x="205" y="0" text-anchor="end">18.6%</text>
      </g>
      <g transform="translate(410 138)">
        <circle cx="5" cy="-4" r="5" fill="#8b949e"/>
        <text class="lg" x="18" y="0">ASL</text>
        <text class="pct" x="205" y="0" text-anchor="end">6.0%</text>
      </g>
      <g transform="translate(630 138)">
        <circle cx="5" cy="-4" r="5" fill="#dea584"/>
        <text class="lg" x="18" y="0">Rust</text>
        <text class="pct" x="205" y="0" text-anchor="end">5.6%</text>
      </g>
      <g transform="translate(410 164)">
        <circle cx="5" cy="-4" r="5" fill="#3178c6"/>
        <text class="lg" x="18" y="0">TypeScript</text>
        <text class="pct" x="205" y="0" text-anchor="end">4.1%</text>
      </g>
      <g transform="translate(630 164)">
        <circle cx="5" cy="-4" r="5" fill="#f1e05a"/>
        <text class="lg" x="18" y="0">JavaScript</text>
        <text class="pct" x="205" y="0" text-anchor="end">0.6%</text>
      </g>
      <g transform="translate(410 190)">
        <circle cx="5" cy="-4" r="5" fill="#7f8690"/>
        <text class="lg" x="18" y="0">Other</text>
        <text class="pct" x="205" y="0" text-anchor="end">1.5%</text>
      </g>
  </g>
</svg>
